P3
15 15
255
59 195 128 61 193 128 58 196 128 58 196 128 57 197 128 57 197 128 56 198 128 56 198 128 53 201 128 54 200 128 53 201 128 53 201 128 52 202 128 52 202 128 52 202 128 
60 194 128 61 193 128 59 195 128 59 195 128 57 197 128 56 198 128 56 198 128 55 199 128 53 201 128 54 200 128 53 201 128 52 202 128 51 203 128 52 202 128 51 203 128 
61 193 128 62 192 128 59 195 128 59 195 128 58 196 128 56 198 128 56 198 128 55 199 128 51 203 128 53 201 128 52 202 128 51 203 128 50 204 128 51 203 128 50 204 128 
62 192 128 63 191 128 59 195 128 60 194 128 58 196 128 56 198 128 55 199 128 55 199 128 51 203 128 52 202 128 51 203 128 50 204 128 49 205 128 51 203 128 49 205 128 
63 191 128 65 189 128 62 192 128 61 193 128 61 193 128 56 198 128 55 199 128 54 200 128 49 205 128 52 202 128 51 203 128 50 204 128 50 204 128 49 205 128 50 204 128 
65 189 128 68 186 128 63 191 128 62 192 128 59 195 128 57 197 128 55 199 128 54 200 128 48 206 128 50 204 128 49 205 128 48 206 128 49 205 128 48 206 128 49 205 128 
68 186 128 71 183 128 65 189 128 65 189 128 60 194 128 55 199 128 53 201 128 52 202 128 46 208 128 48 206 128 47 207 128 45 209 128 47 207 128 48 206 128 47 207 128 
71 183 128 77 177 128 70 184 128 64 190 128 58 196 128 52 202 128 50 204 128 50 204 128 42 212 128 46 208 128 45 209 128 43 211 128 45 209 128 46 208 128 47 207 128 
77 177 128 85 169 128 75 179 128 66 188 128 59 195 128 56 198 128 49 205 128 49 205 128 40 214 128 44 210 128 43 211 128 45 209 128 43 211 128 45 209 128 46 208 128 
71 183 128 76 178 128 68 186 128 62 192 128 57 197 128 51 203 128 43 211 128 44 210 128 32 222 128 39 215 128 39 215 128 41 213 128 43 211 128 45 209 128 46 208 128 
67 187 128 70 184 128 65 189 128 63 191 128 57 197 128 53 201 128 45 209 128 40 214 128 22 232 128 34 220 128 39 215 128 44 210 128 45 209 128 46 208 128 47 207 128 
62 192 128 64 190 128 59 195 128 57 197 128 53 201 128 50 204 128 41 213 128 32 222 128 0 254 128 25 229 128 33 221 128 38 216 128 41 213 128 43 211 128 44 210 128 
62 192 128 63 191 128 59 195 128 58 196 128 57 197 128 54 200 128 53 201 128 56 198 128 31 223 128 38 216 128 42 212 128 44 210 128 45 209 128 46 208 128 47 207 128 
61 193 128 62 192 128 59 195 128 58 196 128 58 196 128 58 196 128 62 192 128 80 174 128 55 199 128 52 202 128 45 209 128 46 208 128 47 207 128 48 206 128 49 205 128 
58 196 128 59 195 128 56 198 128 55 199 128 54 200 128 56 198 128 58 196 128 65 189 128 52 202 128 51 203 128 47 207 128 48 206 128 45 209 128 46 208 128 47 207 128 
