P3
30 30
255
163 91 128 172 82 128 187 67 128 174 80 128 166 88 128 159 95 128 154 100 128 150 104 128 147 107 128 144 110 128 142 112 128 140 114 128 138 116 128 136 118 128 134 120 128 133 121 128 131 123 128 130 124 128 129 125 128 128 126 128 128 126 128 127 127 128 127 127 128 126 128 128 126 128 128 126 128 128 126 128 128 125 129 128 125 129 128 125 129 128 
172 82 128 184 70 128 204 50 128 186 68 128 174 80 128 166 88 128 159 95 128 154 100 128 150 104 128 147 107 128 144 110 128 141 113 128 139 115 128 137 117 128 135 119 128 134 120 128 132 122 128 131 123 128 129 125 128 129 125 128 128 126 128 128 126 128 127 127 128 127 127 128 126 128 128 126 128 128 126 128 128 126 128 128 125 129 128 125 129 128 
158 96 128 167 87 128 184 70 128 171 83 128 162 92 128 156 98 128 151 103 128 147 107 128 144 110 128 141 113 128 139 115 128 137 117 128 135 119 128 133 121 128 132 122 128 130 124 128 129 125 128 128 126 128 126 128 128 126 128 128 126 128 128 125 129 128 125 129 128 125 129 128 125 129 128 124 130 128 124 130 128 124 130 128 124 130 128 123 131 128 
147 107 128 152 102 128 167 87 128 158 96 128 152 102 128 147 107 128 143 111 128 141 113 128 138 116 128 136 118 128 134 120 128 133 121 128 131 123 128 130 124 128 129 125 128 127 127 128 126 128 128 125 129 128 124 130 128 124 130 128 123 131 128 123 131 128 123 131 128 123 131 128 123 131 128 122 132 128 122 132 128 122 132 128 122 132 128 122 132 128 
136 118 128 139 115 128 152 102 128 146 108 128 142 112 128 139 115 128 137 117 128 135 119 128 133 121 128 131 123 128 130 124 128 129 125 128 128 126 128 126 128 128 125 129 128 124 130 128 123 131 128 123 131 128 122 132 128 121 133 128 121 133 128 121 133 128 121 133 128 121 133 128 121 133 128 121 133 128 121 133 128 121 133 128 121 133 128 120 134 128 
125 129 128 126 128 128 139 115 128 136 118 128 134 120 128 132 122 128 130 124 128 129 125 128 128 126 128 127 127 128 126 128 128 125 129 128 124 130 128 123 131 128 123 131 128 122 132 128 121 133 128 120 134 128 119 135 128 119 135 128 119 135 128 119 135 128 119 135 128 119 135 128 119 135 128 119 135 128 119 135 128 119 135 128 119 135 128 119 135 128 
116 138 128 114 140 128 127 127 128 127 127 128 126 128 128 125 129 128 124 130 128 124 130 128 123 131 128 123 131 128 122 132 128 121 133 128 121 133 128 120 134 128 120 134 128 119 135 128 118 136 128 118 136 128 117 137 128 117 137 128 117 137 128 117 137 128 117 137 128 117 137 128 117 137 128 117 137 128 117 137 128 118 136 128 118 136 128 118 136 128 
106 148 128 102 152 128 115 139 128 118 136 128 118 136 128 119 135 128 119 135 128 119 135 128 119 135 128 119 135 128 118 136 128 118 136 128 118 136 128 117 137 128 117 137 128 117 137 128 116 138 128 116 138 128 115 139 128 115 139 128 115 139 128 115 139 128 116 138 128 116 138 128 116 138 128 116 138 128 116 138 128 116 138 128 116 138 128 116 138 128 
96 158 128 90 164 128 104 150 128 109 145 128 111 143 128 112 142 128 113 141 128 114 140 128 114 140 128 115 139 128 115 139 128 115 139 128 115 139 128 115 139 128 115 139 128 114 140 128 114 140 128 113 141 128 113 141 128 113 141 128 113 141 128 114 140 128 114 140 128 114 140 128 114 140 128 114 140 128 115 139 128 115 139 128 115 139 128 115 139 128 
85 169 128 75 179 128 92 162 128 100 154 128 104 150 128 106 148 128 108 146 128 109 145 128 110 144 128 111 143 128 112 142 128 112 142 128 112 142 128 112 142 128 112 142 128 112 142 128 112 142 128 111 143 128 111 143 128 111 143 128 112 142 128 112 142 128 112 142 128 112 142 128 113 141 128 113 141 128 113 141 128 113 141 128 113 141 128 114 140 128 
72 182 128 57 197 128 78 176 128 91 163 128 96 158 128 100 154 128 103 151 128 105 149 128 106 148 128 107 147 128 108 146 128 109 145 128 109 145 128 110 144 128 110 144 128 110 144 128 110 144 128 109 145 128 109 145 128 110 144 128 110 144 128 110 144 128 111 143 128 111 143 128 111 143 128 111 143 128 112 142 128 112 142 128 112 142 128 112 142 128 
55 199 128 30 224 128 60 194 128 80 174 128 88 166 128 93 161 128 97 157 128 100 154 128 102 152 128 104 150 128 105 149 128 106 148 128 107 147 128 107 147 128 107 147 128 108 146 128 108 146 128 108 146 128 107 147 128 108 146 128 108 146 128 109 145 128 109 145 128 109 145 128 110 144 128 110 144 128 110 144 128 111 143 128 111 143 128 111 143 128 
72 182 128 58 196 128 80 174 128 95 159 128 99 155 128 101 153 128 103 151 128 105 149 128 106 148 128 107 147 128 108 146 128 108 146 128 109 145 128 109 145 128 109 145 128 109 145 128 109 145 128 108 146 128 108 146 128 108 146 128 109 145 128 109 145 128 110 144 128 110 144 128 110 144 128 110 144 128 111 143 128 111 143 128 111 143 128 111 143 128 
86 168 128 77 177 128 95 159 128 107 147 128 108 146 128 108 146 128 109 145 128 109 145 128 110 144 128 110 144 128 110 144 128 110 144 128 110 144 128 110 144 128 110 144 128 110 144 128 109 145 128 109 145 128 108 146 128 109 145 128 109 145 128 110 144 128 110 144 128 110 144 128 110 144 128 111 143 128 111 143 128 111 143 128 111 143 128 112 142 128 
97 157 128 93 161 128 107 147 128 119 135 128 116 138 128 115 139 128 114 140 128 114 140 128 113 141 128 113 141 128 113 141 128 112 142 128 112 142 128 112 142 128 111 143 128 111 143 128 110 144 128 109 145 128 109 145 128 109 145 128 109 145 128 110 144 128 110 144 128 110 144 128 111 143 128 111 143 128 111 143 128 111 143 128 112 142 128 112 142 128 
106 148 128 106 148 128 119 135 128 131 123 128 125 129 128 121 133 128 119 135 128 118 136 128 117 137 128 116 138 128 115 139 128 114 140 128 114 140 128 113 141 128 112 142 128 111 143 128 111 143 128 110 144 128 109 145 128 109 145 128 110 144 128 110 144 128 110 144 128 111 143 128 111 143 128 111 143 128 111 143 128 112 142 128 112 142 128 112 142 128 
115 139 128 118 136 128 131 123 128 145 109 128 134 120 128 128 126 128 124 130 128 122 132 128 120 134 128 119 135 128 117 137 128 116 138 128 115 139 128 114 140 128 113 141 128 112 142 128 111 143 128 110 144 128 109 145 128 109 145 128 110 144 128 110 144 128 110 144 128 111 143 128 111 143 128 111 143 128 112 142 128 112 142 128 112 142 128 112 142 128 
114 140 128 115 139 128 125 129 128 134 120 128 128 126 128 124 130 128 122 132 128 120 134 128 119 135 128 117 137 128 116 138 128 115 139 128 114 140 128 113 141 128 112 142 128 111 143 128 110 144 128 109 145 128 107 147 128 108 146 128 109 145 128 109 145 128 110 144 128 110 144 128 110 144 128 111 143 128 111 143 128 111 143 128 111 143 128 112 142 128 
113 141 128 114 140 128 121 133 128 128 126 128 124 130 128 122 132 128 120 134 128 119 135 128 117 137 128 116 138 128 115 139 128 114 140 128 113 141 128 112 142 128 111 143 128 110 144 128 109 145 128 107 147 128 106 148 128 107 147 128 107 147 128 108 146 128 109 145 128 109 145 128 109 145 128 110 144 128 110 144 128 111 143 128 111 143 128 111 143 128 
113 141 128 113 141 128 119 135 128 124 130 128 122 132 128 120 134 128 119 135 128 117 137 128 116 138 128 115 139 128 114 140 128 113 141 128 112 142 128 111 143 128 110 144 128 109 145 128 107 147 128 106 148 128 104 150 128 105 149 128 106 148 128 107 147 128 108 146 128 108 146 128 109 145 128 109 145 128 109 145 128 110 144 128 110 144 128 110 144 128 
112 142 128 112 142 128 118 136 128 122 132 128 120 134 128 119 135 128 117 137 128 116 138 128 115 139 128 114 140 128 113 141 128 112 142 128 111 143 128 110 144 128 109 145 128 107 147 128 106 148 128 104 150 128 102 152 128 104 150 128 105 149 128 106 148 128 106 148 128 107 147 128 108 146 128 108 146 128 109 145 128 109 145 128 109 145 128 110 144 128 
112 142 128 112 142 128 117 137 128 120 134 128 119 135 128 117 137 128 116 138 128 115 139 128 114 140 128 113 141 128 112 142 128 111 143 128 110 144 128 109 145 128 107 147 128 106 148 128 104 150 128 102 152 128 100 154 128 102 152 128 103 151 128 104 150 128 105 149 128 106 148 128 107 147 128 107 147 128 108 146 128 108 146 128 109 145 128 109 145 128 
112 142 128 112 142 128 116 138 128 119 135 128 117 137 128 116 138 128 115 139 128 114 140 128 113 141 128 112 142 128 111 143 128 110 144 128 109 145 128 107 147 128 106 148 128 104 150 128 102 152 128 100 154 128 98 156 128 100 154 128 101 153 128 103 151 128 104 150 128 105 149 128 106 148 128 106 148 128 107 147 128 108 146 128 108 146 128 108 146 128 
112 142 128 111 143 128 115 139 128 117 137 128 116 138 128 115 139 128 114 140 128 113 141 128 112 142 128 111 143 128 110 144 128 109 145 128 107 147 128 106 148 128 104 150 128 102 152 128 100 154 128 98 156 128 95 159 128 98 156 128 100 154 128 101 153 128 102 152 128 104 150 128 104 150 128 105 149 128 106 148 128 107 147 128 107 147 128 108 146 128 
112 142 128 112 142 128 115 139 128 117 137 128 116 138 128 115 139 128 114 140 128 113 141 128 112 142 128 111 143 128 110 144 128 109 145 128 108 146 128 107 147 128 105 149 128 104 150 128 102 152 128 100 154 128 98 156 128 100 154 128 101 153 128 102 152 128 104 150 128 104 150 128 105 149 128 106 148 128 107 147 128 107 147 128 108 146 128 108 146 128 
112 142 128 112 142 128 115 139 128 116 138 128 116 138 128 115 139 128 114 140 128 113 141 128 112 142 128 112 142 128 111 143 128 110 144 128 109 145 128 107 147 128 106 148 128 105 149 128 103 151 128 101 153 128 100 154 128 101 153 128 102 152 128 104 150 128 104 150 128 105 149 128 106 148 128 107 147 128 107 147 128 108 146 128 108 146 128 109 145 128 
112 142 128 112 142 128 115 139 128 116 138 128 115 139 128 115 139 128 114 140 128 113 141 128 113 141 128 112 142 128 111 143 128 110 144 128 109 145 128 108 146 128 107 147 128 106 148 128 104 150 128 103 151 128 101 153 128 102 152 128 104 150 128 104 150 128 105 149 128 106 148 128 107 147 128 107 147 128 108 146 128 108 146 128 109 145 128 109 145 128 
112 142 128 112 142 128 115 139 128 116 138 128 115 139 128 115 139 128 114 140 128 113 141 128 113 141 128 112 142 128 111 143 128 110 144 128 110 144 128 109 145 128 108 146 128 106 148 128 105 149 128 104 150 128 102 152 128 104 150 128 104 150 128 105 149 128 106 148 128 107 147 128 107 147 128 108 146 128 108 146 128 109 145 128 109 145 128 109 145 128 
112 142 128 112 142 128 115 139 128 116 138 128 115 139 128 115 139 128 114 140 128 114 140 128 113 141 128 112 142 128 111 143 128 111 143 128 110 144 128 109 145 128 108 146 128 107 147 128 106 148 128 105 149 128 104 150 128 104 150 128 105 149 128 106 148 128 107 147 128 107 147 128 108 146 128 108 146 128 109 145 128 109 145 128 109 145 128 110 144 128 
113 141 128 112 142 128 115 139 128 116 138 128 115 139 128 115 139 128 114 140 128 114 140 128 113 141 128 112 142 128 112 142 128 111 143 128 110 144 128 109 145 128 109 145 128 108 146 128 107 147 128 106 148 128 104 150 128 105 149 128 106 148 128 107 147 128 107 147 128 108 146 128 108 146 128 109 145 128 109 145 128 109 145 128 110 144 128 110 144 128 
